<svg xmlns="http://www.w3.org/2000/svg" viewBox="0 0 64 64" fill="none">
  <circle cx="32" cy="32" r="30" fill="#0a1020"/>
  <circle cx="32" cy="35" r="16.5" fill="#f4f7fb"/>
  <ellipse cx="24.5" cy="16.5" rx="4.6" ry="10.2" fill="#f4f7fb"/>
  <ellipse cx="39.5" cy="16.5" rx="4.6" ry="10.2" fill="#f4f7fb"/>
  <ellipse cx="24.5" cy="17" rx="2.1" ry="6.4" fill="#7dcec0"/>
  <ellipse cx="39.5" cy="17" rx="2.1" ry="6.4" fill="#7dcec0"/>
  <path d="M29.2 27.2c1.4-1.1 4.2-1.1 5.6 0" stroke="#d4a84b" stroke-width="1.7" stroke-linecap="round"/>
  <path d="M26.6 34.2c1.4.9 2.6.9 4 0" stroke="#2a3344" stroke-width="1.7" stroke-linecap="round"/>
  <path d="M33.4 34.2c1.4.9 2.6.9 4 0" stroke="#2a3344" stroke-width="1.7" stroke-linecap="round"/>
  <circle cx="26.8" cy="37.6" r="1.5" fill="#e8a0a8"/>
  <circle cx="37.2" cy="37.6" r="1.5" fill="#e8a0a8"/>
  <path d="M31.2 39.4c.5 1.1 1.1 1.1 1.6 0" stroke="#5b6b80" stroke-width="1.3" stroke-linecap="round"/>
</svg>
